<svg id="paint" xmlns="http://www.w3.org/2000/svg" xmlns:xlink="http://www.w3.org/1999/xlink" x="0px" y="0px"
	 viewBox="0 0 932 303" style="enable-background:new 0 0 932 303;" xml:space="preserve">
<g>
	<path d="M15.22,111.45l7.4-8.44c7.85,8.44,18.81,13.77,30.36,13.77c14.81,0,23.84-7.55,23.84-18.66c0-11.7-8.14-15.4-18.51-19.99
		l-15.7-6.96c-10.07-4.29-22.06-11.7-22.06-27.54c0-16.44,14.22-28.28,33.47-28.28c13.03,0,24.14,5.48,31.54,13.33l-6.52,7.85
		c-6.66-6.37-14.66-10.37-25.03-10.37c-12.59,0-21.03,6.37-21.03,16.59c0,11.11,9.77,15.25,18.07,18.81l15.7,6.66
		c12.44,5.48,22.51,12.88,22.51,29.02c0,17.03-14.07,30.36-36.43,30.36C37.43,127.59,24.55,121.37,15.22,111.45z"/>
	<path d="M148.34,17.26h13.48l37.17,108.4h-13.03l-10.81-34.21h-40.43l-11.11,34.21h-12.29L148.34,17.26z M137.83,81.83h34.21
		l-5.63-17.62c-4.15-12.29-7.55-23.99-11.25-36.73h-0.59c-3.55,12.88-7.11,24.43-11.11,36.73L137.83,81.83z"/>
	<path d="M221.5,111.45l7.4-8.44c7.85,8.44,18.81,13.77,30.36,13.77c14.81,0,23.84-7.55,23.84-18.66c0-11.7-8.15-15.4-18.51-19.99
		l-15.7-6.96c-10.07-4.29-22.06-11.7-22.06-27.54c0-16.44,14.22-28.28,33.47-28.28c13.03,0,24.14,5.48,31.54,13.33l-6.52,7.85
		c-6.66-6.37-14.66-10.37-25.03-10.37c-12.59,0-21.03,6.37-21.03,16.59c0,11.11,9.77,15.25,18.07,18.81l15.7,6.66
		c12.44,5.48,22.51,12.88,22.51,29.02c0,17.03-14.07,30.36-36.43,30.36C243.71,127.59,230.82,121.37,221.5,111.45z"/>
	<path d="M331.52,81.68V17.26h12.29v64.57c0,26.66,11.7,34.95,26.06,34.95c14.66,0,26.66-8.29,26.66-34.95V17.26h11.7v64.42
		c0,34.5-17.03,45.91-38.35,45.91C348.55,127.59,331.52,116.19,331.52,81.68z"/>
	<path d="M446.43,71.02c0-34.5,18.96-55.68,45.76-55.68c26.95,0,45.91,21.18,45.91,55.68c0,34.65-18.96,56.57-45.91,56.57
		C465.39,127.59,446.43,105.67,446.43,71.02z M525.51,71.02c0-27.69-13.18-44.87-33.32-44.87c-19.99,0-33.17,17.18-33.17,44.87
		c0,27.84,13.18,45.76,33.17,45.76C512.33,116.78,525.51,98.86,525.51,71.02z"/>
	<path d="M23.21,176.41h30.06c24.43,0,40.28,8.15,40.28,31.39c0,22.51-15.7,33.17-39.69,33.17H35.51v43.83H23.21V176.41z
		 M52.09,230.9c19.84,0,29.32-6.96,29.32-23.1c0-16.29-10.07-21.47-29.91-21.47H35.51v44.57H52.09z"/>
	<path d="M124.35,230.16c0-34.5,18.96-55.68,45.76-55.68c26.95,0,45.91,21.18,45.91,55.68c0,34.65-18.96,56.57-45.91,56.57
		C143.31,286.73,124.35,264.82,124.35,230.16z M203.43,230.16c0-27.69-13.18-44.87-33.32-44.87c-19.99,0-33.17,17.18-33.17,44.87
		c0,27.84,13.18,45.76,33.17,45.76C190.25,275.92,203.43,258,203.43,230.16z"/>
	<path d="M254.67,176.41h33.17c22.06,0,37.47,7.85,37.47,30.06c0,17.03-9.92,26.95-25.17,30.36l27.99,47.98h-13.77l-27.1-46.8
		h-20.29v46.8h-12.29V176.41z M285.91,227.94c17.47,0,27.1-6.96,27.1-21.47c0-14.81-9.63-20.14-27.1-20.14h-18.96v41.61H285.91z"/>
	<path d="M384.98,186.77h-33.02v-10.37h78.63v10.37h-33.17v98.03h-12.44V186.77z"/>
	<path d="M465.09,176.41h61.6v10.37h-49.31v38.21h41.76v10.37h-41.76v49.46h-12.29V176.41z"/>
	<path d="M554.38,230.16c0-34.5,18.96-55.68,45.76-55.68c26.95,0,45.91,21.18,45.91,55.68c0,34.65-18.96,56.57-45.91,56.57
		C573.34,286.73,554.38,264.82,554.38,230.16z M633.46,230.16c0-27.69-13.18-44.87-33.32-44.87c-19.99,0-33.17,17.18-33.17,44.87
		c0,27.84,13.18,45.76,33.17,45.76C620.28,275.92,633.46,258,633.46,230.16z"/>
	<path d="M684.69,176.41h12.29v98.03h47.98v10.37h-60.27V176.41z"/>
	<path d="M778.87,176.41h12.29v108.4h-12.29V176.41z"/>
	<path d="M829.81,230.16c0-34.5,18.96-55.68,45.76-55.68c26.95,0,45.91,21.18,45.91,55.68c0,34.65-18.96,56.57-45.91,56.57
		C848.77,286.73,829.81,264.82,829.81,230.16z M908.89,230.16c0-27.69-13.18-44.87-33.32-44.87c-19.99,0-33.17,17.18-33.17,44.87
		c0,27.84,13.18,45.76,33.17,45.76C895.71,275.92,908.89,258,908.89,230.16z"/>
</g>
</svg>
